<svg width="67" height="44" viewBox="0 0 67 44" fill="none" xmlns="http://www.w3.org/2000/svg">
<path fill-rule="evenodd" clip-rule="evenodd" d="M31.9129 1.05556C31.9129 2.49456 36.9159 7.03856 39.6629 8.09356C40.8999 8.56856 43.3319 8.67356 45.0679 8.32656C47.3239 7.87556 48.0199 8.02456 47.5089 8.85156C46.4569 10.5556 39.2229 10.2566 36.3779 8.39256C33.9979 6.83356 33.9129 6.85956 33.8989 9.14256C33.8809 12.3596 32.8409 16.0076 31.9429 16.0076C31.5379 16.0076 31.4219 13.7646 31.6849 11.0236C32.2999 4.62556 30.2069 1.00756 25.8899 1.00756C22.5779 1.00756 22.0979 2.08656 24.5169 4.09356C27.0899 6.22856 30.0139 16.0076 28.0799 16.0076C27.5349 16.0076 26.7769 14.1596 26.3949 11.9016C25.1889 4.76256 19.4879 1.81556 14.1359 5.56456C11.1659 7.64456 11.3309 10.7906 14.5899 14.1926C18.2779 18.0426 16.9329 18.7116 12.0299 15.4656C7.71986 12.6146 5.68386 12.6986 4.02586 15.7976C3.14786 17.4376 3.60086 17.9966 7.30886 19.8486C14.5009 23.4406 17.3899 23.6206 20.3469 20.6646C23.7149 17.2966 23.5849 14.8426 19.8089 10.5426C17.7679 8.21756 17.2019 7.00756 18.1539 7.00756C20.0369 7.00756 22.4869 9.75656 23.8889 13.4436C25.3209 17.2116 23.6639 21.5306 20.0249 23.5076C17.4149 24.9266 17.4149 24.9276 19.7619 24.9676C21.1359 24.9906 23.3139 23.7196 25.0119 21.9016C27.1249 19.6396 27.9129 19.2456 27.9129 20.4496C27.9129 21.3586 26.7599 23.1716 25.3499 24.4786L22.7859 26.8546L25.8559 29.1236C27.9849 30.6976 28.7499 31.9466 28.3519 33.2006C28.0359 34.1946 28.2589 35.0076 28.8459 35.0076C29.4329 35.0076 29.9129 34.1076 29.9129 33.0076C29.9129 31.8966 30.5799 31.0076 31.4129 31.0076C34.0709 31.0076 33.0859 35.6006 29.7229 38.8886C27.9689 40.6046 27.0899 42.0076 27.7709 42.0076C30.4379 42.0076 33.8879 36.6246 33.7019 32.7536C33.6029 30.6886 34.0599 28.4606 34.7169 27.8036C35.6449 26.8756 35.9129 27.7606 35.9129 31.7486C35.9129 34.5766 36.3629 37.1676 36.9129 37.5076C37.4629 37.8476 37.9129 38.9986 37.9129 40.0666C37.9129 41.1346 38.3929 42.0076 38.9799 42.0076C40.1379 42.0076 39.3069 38.1696 37.8009 36.5576C36.6629 35.3396 36.6539 31.6896 37.7849 30.4576C38.2649 29.9356 38.9449 27.5956 39.2969 25.2576C39.8619 21.5016 39.7119 21.0076 38.0019 21.0076C36.9379 21.0076 34.6619 22.4126 32.9449 24.1296C31.2279 25.8466 29.5489 26.9776 29.2139 26.6426C28.0499 25.4786 36.0889 18.8906 38.2899 19.2046C40.2639 19.4866 40.4129 20.1056 40.4129 28.0106C40.4129 35.3236 40.7299 36.9196 42.6769 39.4136C43.9219 41.0076 45.2389 42.0146 45.6039 41.6496C45.9689 41.2856 45.0629 39.7296 43.5899 38.1926C40.0109 34.4566 39.9859 31.0076 43.5379 31.0076C45.9209 31.0076 46.1079 31.2836 45.5629 34.0076C45.2249 35.6996 45.3879 37.0076 45.9379 37.0076C46.4739 37.0076 46.9129 35.8196 46.9129 34.3676C46.9129 32.9156 47.5739 31.2286 48.3819 30.6176C51.6019 28.1846 46.9499 17.6026 41.8069 15.6616C40.2149 15.0606 38.9129 14.1876 38.9129 13.7206C38.9129 12.4396 43.1369 13.9856 45.4769 16.1226C47.9279 18.3606 48.9129 18.5056 48.9129 16.6296C48.9129 14.9806 51.3429 12.7716 52.2069 13.6356C52.5429 13.9706 52.1639 14.8996 51.3649 15.6976C48.6719 18.3916 50.0509 29.9696 53.1619 30.7826C54.7039 31.1866 54.9879 31.8826 54.5349 34.1496C54.2179 35.7306 54.3989 37.0076 54.9379 37.0076C55.4739 37.0076 55.9129 35.6576 55.9129 34.0076C55.9129 32.3576 56.3629 31.0076 56.9129 31.0076C59.1219 31.0076 57.9019 36.8716 55.2599 38.9486C53.8009 40.0966 52.9209 41.3496 53.3049 41.7326C53.6879 42.1156 55.0899 41.0966 56.4209 39.4686C59.3479 35.8876 59.7229 30.3206 57.1649 28.4496C56.2029 27.7466 55.7549 26.8326 56.1689 26.4186C56.5819 26.0046 57.9609 26.6436 59.2309 27.8366C60.5019 29.0306 62.7499 30.0076 64.2269 30.0076C66.5509 30.0076 66.9129 29.5986 66.9129 26.9756C66.9129 23.9016 64.5029 17.0076 63.4289 17.0076C63.1059 17.0076 61.7479 17.7246 60.4099 18.6016C59.0719 19.4786 57.3999 19.9816 56.6949 19.7206C55.9459 19.4436 56.5679 18.7866 58.1889 18.1416C62.4409 16.4496 62.6229 14.3356 58.8489 10.4416C54.9429 6.41156 53.7429 6.21856 51.4849 9.25756L49.8129 11.5076L50.3119 9.09556C50.5859 7.76956 50.3759 5.87256 49.8439 4.87956C48.1259 1.66856 31.9129 -1.78844 31.9129 1.05556ZM0.791861 23.0166C0.131861 25.2186 -0.177139 27.2506 0.103861 27.5316C0.384861 27.8136 1.91986 27.3626 3.51386 26.5316C5.10886 25.7006 8.21286 24.9976 10.4129 24.9696L14.4129 24.9196L10.6719 23.5846C8.61486 22.8506 5.81986 21.5216 4.46086 20.6316C2.01086 19.0256 1.98186 19.0446 0.791861 23.0166ZM4.91286 28.2136C2.49186 29.2586 2.54986 29.3226 6.72686 30.2216C10.8419 31.1076 11.0109 31.2856 10.3969 34.0786C9.99586 35.9056 10.1599 37.0076 10.8339 37.0076C11.4269 37.0076 11.9129 35.6576 11.9129 34.0076C11.9129 32.0076 12.4129 31.0076 13.4129 31.0076C15.5549 31.0076 15.2789 34.7276 12.9129 37.7346C10.5369 40.7546 10.3819 42.0076 12.3819 42.0076C13.2959 42.0076 13.6259 41.4236 13.2559 40.4596C12.9289 39.6086 13.3389 38.3706 14.1659 37.7096C15.7109 36.4746 16.9969 30.4856 16.1959 28.2576C15.6449 26.7266 8.42186 26.6986 4.91286 28.2136ZM17.9129 27.7486C17.9129 28.2576 18.2319 28.9936 18.6219 29.3836C19.0119 29.7736 19.1989 31.9236 19.0379 34.1616C18.8729 36.4496 19.1459 37.9816 19.6619 37.6626C20.1669 37.3506 20.3779 35.7256 20.1329 34.0516C19.7499 31.4466 20.0029 31.0076 21.8869 31.0076C23.9199 31.0076 24.0349 31.3336 23.3929 35.2576C23.0109 37.5946 22.6339 39.7996 22.5549 40.1576C22.4769 40.5146 22.8089 40.8556 23.2929 40.9136C23.7779 40.9716 24.2279 38.6816 24.2929 35.8256C24.4049 30.9706 24.2009 30.5076 21.1629 28.7276C19.3749 27.6806 17.9129 27.2396 17.9129 27.7486ZM2.09486 33.5076C1.94286 36.8166 5.19086 41.9846 6.29786 40.1936C6.66686 39.5966 6.08486 38.6346 5.00386 38.0566C3.84986 37.4386 2.87286 35.6646 2.63586 33.7566L2.23286 30.5076L2.09486 33.5076ZM6.06286 33.6356C5.97886 35.3776 6.58686 37.3226 7.43586 38.0266C8.31486 38.7556 8.70886 40.0756 8.36786 41.1486C8.04386 42.1716 8.25886 43.0076 8.84586 43.0076C10.4269 43.0076 10.1399 38.4406 8.47186 37.0566C7.67986 36.3996 6.84686 34.6566 6.62186 33.1846C6.23986 30.6866 6.20286 30.7176 6.06286 33.6356ZM50.0729 33.1436C49.9849 34.5926 49.2609 37.0356 48.4639 38.5716C46.9899 41.4126 47.2799 43.5166 48.9979 42.4546C49.5189 42.1326 49.6749 41.4306 49.3429 40.8946C49.0119 40.3586 49.2599 39.2936 49.8949 38.5296C50.5299 37.7646 50.8659 35.6466 50.6409 33.8226C50.3079 31.1196 50.2039 30.9936 50.0729 33.1436ZM62.6359 34.4616C60.6299 38.6686 60.5759 39.0076 61.9129 39.0076C62.4629 39.0076 62.9129 38.1976 62.9129 37.2076C62.9129 36.2176 63.4139 34.9066 64.0249 34.2946C64.6369 33.6836 64.9629 32.6576 64.7489 32.0156C64.5349 31.3726 63.5839 32.4736 62.6359 34.4616Z" fill="url(#paint0_linear_101_4)"/>
<defs>
<linearGradient id="paint0_linear_101_4" x1="-1.25138e-07" y1="24" x2="64" y2="23" gradientUnits="userSpaceOnUse">
<stop stop-color="#62CCBF"/>
<stop offset="1" stop-color="#24308E"/>
</linearGradient>
</defs>
</svg>
